<svg width="955" height="956" viewBox="0 0 955 956" fill="none" xmlns="http://www.w3.org/2000/svg">
<g clip-path="url(#clip0_1157_1688)">
<mask id="path-1-outside-1_1157_1688" maskUnits="userSpaceOnUse" x="490.201" y="474.517" width="311.834" height="311.834" fill="black">
<rect fill="white" x="490.201" y="474.517" width="311.834" height="311.834"/>
<path d="M493.029 630.788L645.248 783.007L799.563 628.691L647.345 476.473L493.029 630.788Z"/>
</mask>
<path d="M493.029 630.788L645.248 783.007L799.563 628.691L647.345 476.473L493.029 630.788Z" fill="#094142"/>
<path d="M493.029 630.788L491.615 632.202L490.201 630.788L491.615 629.374L493.029 630.788ZM645.248 783.007L646.662 784.421L645.248 785.835L643.834 784.421L645.248 783.007ZM494.444 629.374L646.662 781.593L643.834 784.421L491.615 632.202L494.444 629.374ZM643.834 781.593L798.149 627.277L800.978 630.106L646.662 784.421L643.834 781.593ZM648.759 477.887L494.444 632.202L491.615 629.374L645.93 475.058L648.759 477.887Z" fill="#20E284" mask="url(#path-1-outside-1_1157_1688)"/>
<mask id="path-3-outside-2_1157_1688" maskUnits="userSpaceOnUse" x="646.627" y="320.928" width="310.42" height="310.42" fill="black">
<rect fill="white" x="646.627" y="320.928" width="310.42" height="310.42"/>
<path d="M646.627 477.198L798.846 629.417L953.161 475.102L800.942 322.883L646.627 477.198Z"/>
</mask>
<path d="M646.627 477.198L798.846 629.417L953.161 475.102L800.942 322.883L646.627 477.198Z" fill="#094142"/>
<path d="M953.161 475.102L954.575 473.687L955.989 475.102L954.575 476.516L953.161 475.102ZM797.431 628.003L951.747 473.687L954.575 476.516L800.26 630.831L797.431 628.003ZM951.747 476.516L799.528 324.297L802.357 321.469L954.575 473.687L951.747 476.516Z" fill="#20E284" mask="url(#path-3-outside-2_1157_1688)"/>
<mask id="path-5-outside-3_1157_1688" maskUnits="userSpaceOnUse" x="492.013" y="167.087" width="311.834" height="311.834" fill="black">
<rect fill="white" x="492.013" y="167.087" width="311.834" height="311.834"/>
<path d="M494.842 324.771L647.06 476.99L801.376 322.675L649.157 170.456L494.842 324.771Z"/>
</mask>
<path d="M494.842 324.771L647.06 476.99L801.376 322.675L649.157 170.456L494.842 324.771Z" fill="#094142"/>
<path d="M494.842 324.771L493.428 326.186L492.013 324.771L493.428 323.357L494.842 324.771ZM649.157 170.456L647.743 169.042L649.157 167.628L650.571 169.042L649.157 170.456ZM496.256 323.357L648.475 475.576L645.646 478.404L493.428 326.186L496.256 323.357ZM799.962 324.089L647.743 171.87L650.571 169.042L802.79 321.261L799.962 324.089ZM650.571 171.87L496.256 326.186L493.428 323.357L647.743 169.042L650.571 171.87Z" fill="#20E284" mask="url(#path-5-outside-3_1157_1688)"/>
<rect width="215.27" height="218.235" transform="matrix(0.707107 0.707107 0.707107 -0.707107 153.422 632.574)" fill="#20E284"/>
<rect width="215.27" height="218.235" transform="matrix(0.707107 0.707107 0.707107 -0.707107 1.58008 480.762)" fill="#20E284"/>
<rect width="215.27" height="218.235" transform="matrix(0.707107 0.707107 0.707107 -0.707107 155.762 326.565)" fill="#20E284"/>
</g>
<defs>
<clipPath id="clip0_1157_1688">
<rect width="954.914" height="954.914" fill="white" transform="translate(0 0.171387)"/>
</clipPath>
</defs>
</svg>
